<?xml version="1.0" encoding="UTF-8" standalone="no"?>
<svg
   xmlns:dc="http://purl.org/dc/elements/1.1/"
   xmlns:cc="http://creativecommons.org/ns#"
   xmlns:rdf="http://www.w3.org/1999/02/22-rdf-syntax-ns#"
   xmlns:svg="http://www.w3.org/2000/svg"
   xmlns="http://www.w3.org/2000/svg"
   xmlns:sodipodi="http://sodipodi.sourceforge.net/DTD/sodipodi-0.dtd"
   xmlns:inkscape="http://www.inkscape.org/namespaces/inkscape"
   version="1.1"
   width="1015"
   height="195"
   viewBox="181.57761 181.05 1015 195"
   xml:space="preserve"
   id="svg13"
   sodipodi:docname="built.svg"><metadata
   id="metadata17"><rdf:RDF><cc:Work
       rdf:about=""><dc:format>image/svg+xml</dc:format><dc:type
         rdf:resource="http://purl.org/dc/dcmitype/StillImage" /></cc:Work></rdf:RDF></metadata><sodipodi:namedview
   pagecolor="#ffffff"
   bordercolor="#666666"
   borderopacity="1"
   objecttolerance="10"
   gridtolerance="10"
   guidetolerance="10"
   inkscape:pageopacity="0"
   inkscape:pageshadow="2"
   inkscape:window-width="640"
   inkscape:window-height="480"
   id="namedview15"
   fit-margin-top="54"
   fit-margin-left="54"
   fit-margin-right="54"
   fit-margin-bottom="54" />
<desc
   id="desc2">Created with Fabric.js 5.3.0</desc>
<defs
   id="defs4">
</defs><rect
   width="100%"
   height="100%"
   fill="#ffffff"
   id="rect6"
   x="54"
   y="54" />
<g
   transform="matrix(0.72,0,0,0.72,690,280)"
   id="base_text">
		<g
   aria-label="e-partnerim.com"
   id="text10"
   style="font-style:normal;font-weight:normal;font-size:120px;font-family:f48;white-space:pre;opacity:1;fill:#0d5f89;fill-rule:nonzero;stroke:none;stroke-width:1;stroke-linecap:butt;stroke-linejoin:miter;stroke-miterlimit:4;stroke-dasharray:none;stroke-dashoffset:0"><path
     d="m -586.49998,39.620001 q -12.48,0 -22.32,-4.56 -9.72,-4.56 -15.36,-12.72 -5.64,-8.28 -5.64,-19.2000002 0,-10.68 5.4,-18.7199998 5.4,-8.16 14.76,-12.72 9.48,-4.56 21.36,-4.56 12.36,0 21,5.4 8.76,5.28 13.44,15 4.8,9.7199998 4.8,22.92 h -60.96 V -4.2999992 h 47.16 l -8.04,5.15999996 q -0.48,-5.27999996 -2.64,-8.87999996 -2.16,-3.7199998 -5.76,-5.6399998 -3.48,-1.92 -8.4,-1.92 -5.4,0 -9.24,2.16 -3.84,2.16 -6,5.9999998 -2.16,3.72 -2.16,8.76 0,6.48 2.88,11.0400002 3,4.44 8.64,6.84 5.76,2.4 14.04,2.4 7.56,0 15,-1.92 7.56,-2.04 13.68,-5.64 v 15.6 q -7.08,4.8 -16.2,7.44 -9,2.52 -19.44,2.52 z"
     id="path19" /><path
     d="m -538.86007,-13.899999 h 31.56 V 5.4200008 h -31.56 z"
     id="path21" /><path
     d="m -494.10027,-30.819999 h 24.6 v 19.68 l -1.08,2.8799998 V 10.940001 l 1.08,5.64 v 40.92 h -24.6 z m 16.8,34.3199998 q 1.56,-11.16 6.48,-19.1999998 5.04,-8.16 12.72,-12.6 7.68,-4.56 17.4,-4.56 10.08,0 17.64,4.56 7.68,4.56 11.88,12.72 4.32,8.1599998 4.32,19.0799998 0,10.6800002 -4.32,18.9600002 -4.2,8.16 -11.88,12.72 -7.56,4.44 -17.64,4.44 -9.72,0 -17.4,-4.44 -7.68,-4.56 -12.6,-12.72 -4.92,-8.16 -6.6,-18.9600002 z m 45.72,0 q 0,-5.16 -2.16,-9.12 -2.04,-3.96 -5.88,-6.2399998 -3.72,-2.28 -8.52,-2.28 -4.92,0 -9.36,2.28 -4.44,2.2799998 -7.8,6.2399998 -3.36,3.96 -5.16,9.12 1.8,5.04 5.16,9.0000002 3.36,3.96 7.8,6.24 4.44,2.16 9.36,2.16 4.8,0 8.52,-2.16 3.84,-2.28 5.88,-6.24 2.16,-3.9600002 2.16,-9.0000002 z"
     id="path23" /><path
     d="m -334.38043,37.700001 -3.12,-24.72 3.24,-9.4800002 -3.24,-9.48 3.12,-24.8399998 h 25.44 l -4.32,34.1999998 4.32,34.3200002 z m 5.76,-34.2000002 q -1.68,10.8000002 -6.72,18.9600002 -4.92,8.16 -12.6,12.72 -7.56,4.44 -17.28,4.44 -10.08,0 -17.76,-4.44 -7.56,-4.56 -11.88,-12.72 -4.32,-8.28 -4.32,-18.9600002 0,-10.92 4.32,-19.0799998 4.32,-8.16 11.88,-12.72 7.68,-4.56 17.76,-4.56 9.72,0 17.28,4.56 7.68,4.44 12.72,12.6 5.04,8.0399998 6.6,19.1999998 z m -45.72,0 q 0,5.04 2.04,9.0000002 2.16,3.96 5.88,6.24 3.72,2.16 8.52,2.16 5.04,0 9.48,-2.16 4.44,-2.28 7.8,-6.24 3.36,-3.9600002 5.04,-9.0000002 -1.68,-5.16 -5.04,-9.12 -3.36,-3.96 -7.8,-6.2399998 -4.44,-2.28 -9.48,-2.28 -4.8,0 -8.52,2.28 -3.72,2.2799998 -5.88,6.2399998 -2.04,3.96 -2.04,9.12 z"
     id="path25" /><path
     d="m -300.42063,-30.819999 h 24.96 l 4.08,24.4799998 V 37.700001 h -24.48 V -7.7799992 Z m 61.2,-1.08 v 20.88 q -3.6,-0.72 -6.84,-0.96 -3.12,-0.36 -5.76,-0.36 -5.28,0 -9.72,2.16 -4.44,2.0399998 -7.2,6.8399998 -2.64,4.8 -2.64,12.84 l -4.68,-5.76 q 0.96,-7.44 2.88,-13.9199998 1.92,-6.6 5.16,-11.64 3.36,-5.16 8.28,-8.04 4.92,-3 12,-3 2.04,0 4.2,0.24 2.16,0.24 4.32,0.72 z"
     id="path27" /><path
     d="m -236.2208,-12.699999 v -10.68 l 13.92,-5.64 10.56,-20.28 h 13.92 v 18.48 h 28.8 v 18.12 h -28.8 V 7.4600008 q 0,7.4400002 3,10.4400002 3,3 10.92,3 5.04,0 8.88,-0.84 3.96,-0.96 7.2,-2.4 v 18.48 q -3.6,1.32 -9.48,2.4 -5.88,1.08 -12.12,1.08 -11.4,0 -18.72,-3.48 -7.2,-3.48 -10.68,-9.96 -3.48,-6.6 -3.48,-15.36 v -23.52 z"
     id="path29" /><path
     d="m -161.10093,-30.819999 h 24.6 l 4.44,27.3599998 V 37.700001 h -24.48 V -7.1799992 Z m 54.24,-2.04 q 9.839997,0 16.799997,3.96 6.96,3.96 10.56,11.16 3.72,7.2 3.72,17.03999976 V 37.700001 H -100.26093 V 2.9000008 q 0,-7.68 -3.96,-11.76 -3.84,-4.0799998 -11.16,-4.0799998 -5.04,0 -8.88,2.16 -3.72,2.1599998 -5.76,6.1199998 -2.04,3.95999996 -2.04,9.36 l -7.56,-3.96000004 q 1.44,-10.91999976 6.12,-18.35999976 4.68,-7.56 11.52,-11.4 6.84,-3.84 15.12,-3.84 z"
     id="path31" /><path
     d="m -22.981001,39.620001 q -12.48,0 -22.32,-4.56 -9.72,-4.56 -15.36,-12.72 -5.64,-8.28 -5.64,-19.2000002 0,-10.68 5.4,-18.7199998 5.4,-8.16 14.76,-12.72 9.48,-4.56 21.36,-4.56 12.36,0 21,5.4 8.76,5.28 13.44,15 4.8,9.7199998 4.8,22.92 h -60.96 V -4.2999992 H 0.65899902 L -7.381001,0.86000076 q -0.48,-5.27999996 -2.64,-8.87999996 -2.16,-3.7199998 -5.76,-5.6399998 -3.48,-1.92 -8.4,-1.92 -5.4,0 -9.24,2.16 -3.84,2.16 -6,5.9999998 -2.16,3.72 -2.16,8.76 0,6.48 2.88,11.0400002 3,4.44 8.64,6.84 5.76,2.4 14.04,2.4 7.56,0 15,-1.92 7.56,-2.04 13.68,-5.64 v 15.6 q -7.08,4.8 -16.2,7.44 -9,2.52 -19.44,2.52 z"
     id="path33" /><path
     d="m 21.298909,-30.819999 h 24.96 l 4.08,24.4799998 V 37.700001 h -24.48 V -7.7799992 Z m 61.2,-1.08 v 20.88 q -3.6,-0.72 -6.84,-0.96 -3.12,-0.36 -5.76,-0.36 -5.28,0 -9.72,2.16 -4.44,2.0399998 -7.2,6.8399998 -2.64,4.8 -2.64,12.84 l -4.68,-5.76 q 0.96,-7.44 2.88,-13.9199998 1.92,-6.6 5.16,-11.64 3.36,-5.16 8.28,-8.04 4.92,-3 12,-3 2.04,0 4.2,0.24 2.16,0.24 4.32,0.72 z"
     id="path35" /><path
     d="m 90.898833,-31.899999 12.359997,2.4 12.24,-2.4 v 69.6 H 90.898833 Z m 12.239997,-5.64 q -6.359997,0 -10.319997,-3.12 -3.96,-3.24 -3.96,-8.76 0,-5.4 3.96,-8.64 3.96,-3.24 10.319997,-3.24 6.6,0 10.44,3.24 3.96,3.24 3.96,8.64 0,5.52 -3.96,8.76 -3.84,3.12 -10.44,3.12 z"
     id="path37" /><path
     d="m 125.69875,-30.819999 h 24.6 l 4.44,27.3599998 V 37.700001 h -24.48 V -7.1799992 Z m 52.68,-2.04 q 9.48,0 16.08,3.96 6.6,3.96 10.08,11.16 3.48,7.2 3.48,17.03999976 V 37.700001 h -24.48 V 2.9000008 q 0,-7.68 -3.48,-11.76 -3.48,-4.0799998 -10.08,-4.0799998 -4.68,0 -8.16,2.16 -3.36,2.1599998 -5.28,6.1199998 -1.8,3.95999996 -1.8,9.36 l -7.56,-3.96000004 q 1.44,-10.91999976 5.88,-18.35999976 4.44,-7.56 10.92,-11.4 6.6,-3.84 14.4,-3.84 z m 53.16,0 q 9.48,0 16.08,3.96 6.72,3.96 10.2,11.16 3.48,7.2 3.48,17.03999976 V 37.700001 h -24.48 V 2.9000008 q 0,-7.68 -3.48,-11.76 -3.48,-4.0799998 -10.08,-4.0799998 -4.68,0 -8.16,2.16 -3.36,2.1599998 -5.28,6.1199998 -1.8,3.95999996 -1.8,9.36 l -7.56,-3.96000004 q 1.44,-10.91999976 5.76,-18.35999976 4.44,-7.56 11.04,-11.4 6.6,-3.84 14.28,-3.84 z"
     id="path39" /><path
     d="m 285.17853,38.900001 q -3.84,0 -7.08,-1.8 -3.12,-1.8 -4.92,-4.92 -1.8,-3.24 -1.8,-7.08 0,-3.84 1.8,-6.96 1.8,-3.12 4.92,-4.92 3.24,-1.92 7.08,-1.92 3.96,0 7.08,1.92 3.12,1.8 4.92,4.92 1.8,3.12 1.8,6.96 0,3.84 -1.8,7.08 -1.8,3.12 -4.92,4.92 -3.12,1.8 -7.08,1.8 z"
     id="path41" /><path
     d="m 390.89837,8.7800008 q -0.96,9.2400002 -6.72,16.2000002 -5.76,6.96 -15,10.8 -9.12,3.84 -20.52,3.84 -12.6,0 -22.2,-4.56 -9.6,-4.56 -15,-12.72 -5.4,-8.16 -5.4,-18.8400002 0,-10.8 5.4,-18.9599998 5.4,-8.16 15,-12.72 9.6,-4.68 22.2,-4.68 11.4,0 20.52,3.96 9.24,3.84 15,10.8 5.76,6.84 6.72,16.1999998 h -24.36 q -1.32,-6.12 -6.12,-9.3599998 -4.8,-3.36 -11.76,-3.36 -5.4,0 -9.48,2.16 -3.96,2.04 -6.24,6.1199998 -2.16,3.96 -2.16,9.84 0,5.76 2.16,9.8400002 2.28,3.96 6.24,6.12 4.08,2.04 9.48,2.04 6.96,0 11.76,-3.48 4.92,-3.48 6.12,-9.2400002 z"
     id="path43" /><path
     d="m 441.41825,39.620001 q -13.2,0 -23.04,-4.44 -9.84,-4.56 -15.36,-12.72 -5.52,-8.28 -5.52,-18.9600002 0,-10.92 5.52,-19.0799998 5.52,-8.16 15.36,-12.72 9.84,-4.56 23.04,-4.56 13.08,0 22.92,4.56 9.96,4.56 15.48,12.72 5.52,8.1599998 5.52,19.0799998 0,10.6800002 -5.52,18.9600002 -5.52,8.16 -15.48,12.72 -9.84,4.44 -22.92,4.44 z m 0,-18.12 q 6,0 10.2,-2.16 4.32,-2.16 6.6,-6.24 2.28,-4.0800002 2.28,-9.6000002 0,-5.76 -2.28,-9.72 -2.28,-4.0799998 -6.6,-6.2399998 -4.2,-2.16 -10.2,-2.16 -6,0 -10.32,2.16 -4.32,2.16 -6.6,6.2399998 -2.28,3.96 -2.28,9.6 0,5.64 2.28,9.7200002 2.28,4.08 6.6,6.24 4.32,2.16 10.32,2.16 z"
     id="path45" /><path
     d="m 491.93807,-30.819999 h 24.6 l 4.44,27.3599998 V 37.700001 h -24.48 V -7.1799992 Z m 52.68,-2.04 q 9.48,0 16.08,3.96 6.6,3.96 10.08,11.16 3.48,7.2 3.48,17.03999976 V 37.700001 h -24.48 V 2.9000008 q 0,-7.68 -3.48,-11.76 -3.48,-4.0799998 -10.08,-4.0799998 -4.68,0 -8.16,2.16 -3.36,2.1599998 -5.28,6.1199998 -1.8,3.95999996 -1.8,9.36 l -7.56,-3.96000004 q 1.44,-10.91999976 5.88,-18.35999976 4.44,-7.56 10.92,-11.4 6.6,-3.84 14.4,-3.84 z m 53.16,0 q 9.48,0 16.08,3.96 6.72,3.96 10.2,11.16 3.48,7.2 3.48,17.03999976 V 37.700001 h -24.48 V 2.9000008 q 0,-7.68 -3.48,-11.76 -3.48,-4.0799998 -10.08,-4.0799998 -4.68,0 -8.16,2.16 -3.36,2.1599998 -5.28,6.1199998 -1.8,3.95999996 -1.8,9.36 l -7.56,-3.96000004 q 1.44,-10.91999976 5.76,-18.35999976 4.44,-7.56 11.04,-11.4 6.6,-3.84 14.28,-3.84 z"
     id="path47" /></g>
</g></svg>
