<?xml version="1.0" encoding="UTF-8" standalone="no"?>
<svg
   xmlns:dc="http://purl.org/dc/elements/1.1/"
   xmlns:cc="http://creativecommons.org/ns#"
   xmlns:rdf="http://www.w3.org/1999/02/22-rdf-syntax-ns#"
   xmlns:svg="http://www.w3.org/2000/svg"
   xmlns="http://www.w3.org/2000/svg"
   xmlns:sodipodi="http://sodipodi.sourceforge.net/DTD/sodipodi-0.dtd"
   xmlns:inkscape="http://www.inkscape.org/namespaces/inkscape"
   version="1.1"
   width="292"
   height="307"
   viewBox="505.925 88.5 292 307"
   xml:space="preserve"
   id="svg35"
   sodipodi:docname="built.svg"><metadata
   id="metadata39"><rdf:RDF><cc:Work
       rdf:about=""><dc:format>image/svg+xml</dc:format><dc:type
         rdf:resource="http://purl.org/dc/dcmitype/StillImage" /></cc:Work></rdf:RDF></metadata><sodipodi:namedview
   pagecolor="#ffffff"
   bordercolor="#666666"
   borderopacity="1"
   objecttolerance="10"
   gridtolerance="10"
   guidetolerance="10"
   inkscape:pageopacity="0"
   inkscape:pageshadow="2"
   inkscape:window-width="640"
   inkscape:window-height="480"
   id="namedview37"
   fit-margin-top="16"
   fit-margin-left="16"
   fit-margin-right="16"
   fit-margin-bottom="16" />
<desc
   id="desc2">Created with Fabric.js 5.3.0</desc>
<defs
   id="defs4">
</defs><g
   transform="matrix(0.55,0,0,0.55,652,242)"
   id="main_icon">
<g
   id="g32">
		<g
   transform="matrix(0.85,0,0,0.85,62.68,104.25)"
   id="g10">
<path
   style="opacity:1;fill:#0d5f89;fill-rule:nonzero;stroke:none;stroke-width:1;stroke-linecap:butt;stroke-linejoin:miter;stroke-miterlimit:4;stroke-dasharray:none;stroke-dashoffset:0"
   transform="translate(-351.01,-415.75)"
   d="m 228.6,484.6 c 25.8,-29.3 37.4,-64.1 42.8,-102.1 -14.7,8.5 -28.3,17.9 -40.9,28.9 -21.6,19 -41.7,39.3 -57.1,63.8 -4.1,6.6 -8.4,9.2 -15.7,8.1 -2.9,-0.5 -5.9,-0.1 -10.2,-0.1 2.8,-4.5 4.9,-8.2 7.3,-11.7 31.9,-48.1 74.8,-84.3 123.4,-114.5 35.4,-21.9 71.2,-42.7 108.8,-60.6 26.5,-12.6 53.4,-24.2 82,-31.6 5.3,-1.4 11.1,-4 14.7,-7.8 16.1,-17.3 41.8,-15.4 57.2,4.5 18.4,23.9 19.6,63 -5.3,86 -10.1,9.3 -22.1,13.5 -35.3,9.3 -6,-1.9 -11.3,-6.7 -16.4,-10.8 -6.5,-5.2 -13.1,-6.4 -19.8,-2.9 -4.3,2.3 -6.9,5.8 -7.7,10.4 -0.6,3.9 -0.9,8 -0.9,11.9 -0.1,37.8 -0.1,75.7 -0.1,113.5 0,1.2 0,2.3 0,4.3 -2.1,0 -4,0 -5.9,0 -37.3,0 -74.6,0 -111.9,0 -12.4,0 -20,6 -21.6,16.9 -1,7 1.5,13.1 6.1,18.3 15.7,17.4 15.3,34.7 -1.9,51.3 -25.1,24.1 -73.4,23.1 -94,-10.5 -8.1,-13.3 -6.7,-28.6 4,-38.6 12.1,-11.3 11.6,-24 -1.6,-36 z"
   stroke-linecap="round"
   id="path8" />
</g>
		<g
   transform="matrix(0.85,0,0,0.85,-62.17,-96.91)"
   id="g14">
<path
   style="opacity:1;fill:#0d5f89;fill-rule:nonzero;stroke:none;stroke-width:1;stroke-linecap:butt;stroke-linejoin:miter;stroke-miterlimit:4;stroke-dasharray:none;stroke-dashoffset:0"
   transform="translate(-204.12,-179.1)"
   d="m 99.8,109.1 c 2.4,0 4.2,0 6,0 36.6,0 73.2,0 109.9,0 9.7,0 17.6,-3.6 21.8,-12.9 3.7,-8.2 1.5,-18.5 -6.2,-25 -12.4,-10.5 -12.8,-22.3 -6.8,-37.6 9,-22.9 37.5,-37 61.8,-32.9 19.2,3.3 33.9,12.4 42.6,29.8 2.8,5.6 4.4,12.2 5.2,18.5 1,7.8 -2.7,14.3 -8.3,20 -3.7,3.8 -7.2,8.5 -8.9,13.4 -3.6,10.4 2.2,18.1 9.4,24.7 -22.9,28.1 -33,61.5 -40.3,97.5 4.3,-2.8 7.8,-4.8 11.1,-7.2 15.8,-11.7 32,-22.7 47,-35.3 16.4,-13.8 30,-30.2 40.2,-49.2 1.5,-2.9 3.2,-4.1 6.5,-3.9 5.2,0.3 10.5,0.1 17.5,0.1 -7.2,11 -13.1,21.4 -20.3,30.8 -22.8,30.2 -52.2,52.9 -83.9,73 -51,32.4 -103.1,62.7 -157.4,89.2 -19.4,9.4 -39.5,17.4 -59.4,25.8 -7.2,3 -13.2,7.1 -16.8,14.2 C 60,363.2 34.2,361.7 20,348.3 5.8,334.8 -1.2,318.1 0.1,298.6 c 1.2,-17.5 7.4,-33 21.4,-44.5 12.1,-10.1 34.6,-13.6 48,1 5.2,5.7 12.1,8.1 19.9,4.6 7.8,-3.5 10.4,-10 10.4,-17.8 0.1,-41.7 0.1,-83.3 0.1,-125 -0.1,-2.4 -0.1,-4.7 -0.1,-7.8 z"
   stroke-linecap="round"
   id="path12" />
</g>
		<g
   transform="matrix(0.85,0,0,0.85,0.17,-26.91)"
   id="g18">
<path
   style="opacity:1;fill:#0d5f89;fill-rule:nonzero;stroke:none;stroke-width:1;stroke-linecap:butt;stroke-linejoin:miter;stroke-miterlimit:4;stroke-dasharray:none;stroke-dashoffset:0"
   transform="translate(-277.47,-261.45)"
   d="m 442.4,183.5 c -1.5,-1.2 -3,-2.4 -4,-3.3 -11.5,12.4 -22.5,25.1 -34.3,37 -20.8,21.1 -45.6,37.2 -70.7,52.7 -41.7,25.7 -83.9,50.7 -125.7,76.5 -28.3,17.5 -56.1,35.8 -84.1,53.5 -7.5,4.8 -15.3,9.1 -23.8,14.1 0,-13 0,-25.4 0.1,-37.8 0,-0.9 1,-2.1 1.8,-2.5 14.3,-7 28.7,-13.9 43,-20.8 0.7,-0.3 1.5,-0.2 1.9,-0.3 -1.1,3.4 -2.2,6.6 -3.3,9.9 2.5,2.6 4.7,2.8 7.5,0.9 20.9,-13.6 41.6,-27.4 62.9,-40.5 24.5,-15.1 49.4,-29.4 74.1,-44.2 28.7,-17.2 57.2,-34.6 83.4,-55.5 18.2,-14.6 34.8,-30.9 48.5,-50 3.4,-4.8 2.3,-11 -2.8,-13.7 -0.7,-0.4 -2.7,0.6 -3.5,1.5 -8.5,9.3 -16.4,19.4 -25.5,28.1 -24.3,23.2 -51.4,42.8 -80.3,59.8 -40,23.5 -80.1,46.7 -121.1,68.4 -26.5,14 -54.6,25.2 -81.9,37.6 -1.3,0.6 -2.8,0.9 -5.1,1.6 0,-5.8 -0.2,-10.9 0.2,-16 0.1,-1.2 2.1,-2.6 3.6,-3.3 23.5,-10.8 47.5,-20.7 70.6,-32.3 51.1,-25.7 100.7,-54.2 148.4,-85.6 26,-17.1 50,-36.5 69.9,-60.6 11.8,-14.2 23,-29 30.4,-46.1 1.3,-3 3,-3.8 6,-3.7 8.8,0.2 17.6,0.1 26.9,0.1 0,2.2 0,4 0,5.7 0,32.3 -0.1,64.7 0,97 0,3.6 -1,5.1 -4.4,6.3 -15.4,5.6 -30.6,11.6 -46.2,17.6 15.2,-14.2 30.2,-28.4 40.4,-45.7 -0.8,-2.5 -1.3,-4.4 -1.9,-6.2 l -0.1,0.2 c -0.3,-0.2 -0.7,-0.3 -1,-0.5 z"
   stroke-linecap="round"
   id="path16" />
</g>
		<g
   transform="matrix(0.85,0,0,0.85,0.33,55.72)"
   id="g22">
<path
   style="opacity:1;fill:#0d5f89;fill-rule:nonzero;stroke:none;stroke-width:1;stroke-linecap:butt;stroke-linejoin:miter;stroke-miterlimit:4;stroke-dasharray:none;stroke-dashoffset:0"
   transform="translate(-277.67,-358.65)"
   d="M 455.5,233.9 V 252 c -50.2,16.5 -96.5,40.5 -141.9,66.4 -33.4,19 -65.9,39.5 -96.2,63.1 -32.9,25.6 -60.1,56.5 -81.4,92.3 -4.5,7.6 -9,10.4 -17.3,9.4 -6,-0.7 -12.2,-0.1 -18.8,-0.1 0,-11.2 0,-21.5 0,-31.8 0,-5.7 -0.2,-11.3 0.1,-17 0.1,-1.4 0.8,-3.4 1.9,-4 16.4,-9.9 33,-19.7 50,-29 -1.4,1.8 -2.9,3.4 -4.1,5.3 -1.7,2.8 -3.2,5.8 -4.7,8.7 -0.9,1.8 -2.3,3.6 -2.4,5.4 -0.1,2.5 0.8,5 1.3,7.4 2.4,-1 5.7,-1.2 7.2,-3 13.9,-17.1 29.7,-32.3 46.2,-46.9 23.4,-20.6 49.1,-38 75.7,-54.2 38,-23.2 77,-44.8 117.5,-63.2 20.6,-9.4 41.9,-17.4 62.9,-26.1 1,-0.4 2.4,-0.5 4,-0.8 z"
   stroke-linecap="round"
   id="path20" />
</g>
		<g
   transform="matrix(0.85,0,0,0.85,-51.32,133.35)"
   id="g26">
<path
   style="opacity:1;fill:#0d5f89;fill-rule:nonzero;stroke:none;stroke-width:1;stroke-linecap:butt;stroke-linejoin:miter;stroke-miterlimit:4;stroke-dasharray:none;stroke-dashoffset:0"
   transform="translate(-216.9,-449.98)"
   d="m 184.9,483.1 c 18.7,-25.7 39.4,-47.6 64,-66.3 -2.2,5.9 -4.1,11.9 -6.5,17.6 -7.2,16.9 -16.7,32.4 -29.4,45.9 -1.4,1.5 -3.8,2.6 -5.8,2.7 -6.9,0.3 -14,0.1 -22.3,0.1 z"
   stroke-linecap="round"
   id="path24" />
</g>
		<g
   transform="matrix(0.85,0,0,0.85,53.28,-130.77)"
   id="g30">
<path
   style="opacity:1;fill:#0d5f89;fill-rule:nonzero;stroke:none;stroke-width:1;stroke-linecap:butt;stroke-linejoin:miter;stroke-miterlimit:4;stroke-dasharray:none;stroke-dashoffset:0"
   transform="translate(-339.95,-139.27)"
   d="m 311.5,169.5 c 6.8,-21.5 15.8,-40.7 29.3,-57.7 1,-1.2 2.8,-2.5 4.2,-2.6 7.5,-0.3 14.9,-0.1 23.4,-0.1 -14.5,24.6 -33.3,44.2 -56.9,60.4 z"
   stroke-linecap="round"
   id="path28" />
</g>
</g>
</g></svg>
